<svg xmlns="http://www.w3.org/2000/svg" viewBox="-0.5 -0.5 16 16" fill="none" stroke="#2772f0" stroke-linecap="round" stroke-linejoin="round" id="Tag-Off--Streamline-Tabler.svg" height="16" width="16"><desc>Tag Off Streamline Icon: https://streamlinehq.com</desc><path d="M4.468125 4.465A0.31125 0.31125 0 0 0 4.6875 5a0.31125 0.31125 0 0 0 0.213125 -0.084375" stroke-width="1"></path><path d="M2.426875 2.421875A1.8687500000000001 1.8687500000000001 0 0 0 1.875 3.75v3.2325a1.25 1.25 0 0 0 0.36624999999999996 0.8837499999999999l4.81875 4.81875a1.50625 1.50625 0 0 0 2.13 0L10.9375 10.9375m1.2531249999999998 -1.2531249999999998 0.49375 -0.49375a1.50625 1.50625 0 0 0 0 -2.13125l-4.81875 -4.81875A1.25 1.25 0 0 0 6.983125 1.875H4.375" stroke-width="1"></path><path d="m1.875 1.875 11.25 11.25" stroke-width="1"></path></svg>