<?xml version="1.0" encoding="UTF-8"?>
<svg version="1.1" xmlns="http://www.w3.org/2000/svg" width="47" height="52">
<path d="M0 0 C3.10385613 0.09637265 3.10385613 0.09637265 6.5 -0.6875 C10 -1 10 -1 11.875 0.125 C13.23526531 2.39210885 13.64780657 4.39376858 14 7 C14.94875 7.103125 15.8975 7.20625 16.875 7.3125 C20 8 20 8 22 11 C22.25878906 13.57202148 22.25878906 13.57202148 22.265625 16.62109375 C22.26949219 18.27141602 22.26949219 18.27141602 22.2734375 19.95507812 C22.26570313 21.10427734 22.25796875 22.25347656 22.25 23.4375 C22.26160156 25.15549805 22.26160156 25.15549805 22.2734375 26.90820312 C22.27085938 28.00970703 22.26828125 29.11121094 22.265625 30.24609375 C22.26336914 31.25341553 22.26111328 32.2607373 22.25878906 33.29858398 C21.99780652 36.02289706 21.39537104 37.67241857 20 40 C14.76728431 40.07403712 9.53487199 40.12854783 4.30175781 40.16479492 C2.52077933 40.17990173 0.73983816 40.20038835 -1.04101562 40.22631836 C-3.59774978 40.26261943 -6.1539931 40.27970688 -8.7109375 40.29296875 C-9.50994476 40.30845261 -10.30895203 40.32393646 -11.13217163 40.33988953 C-13.37646484 40.34057617 -13.37646484 40.34057617 -17 40 C-19.2654445 36.60183325 -19.25668408 35.3668758 -19.265625 31.37890625 C-19.26820312 30.27869141 -19.27078125 29.17847656 -19.2734375 28.04492188 C-19.26570313 26.89572266 -19.25796875 25.74652344 -19.25 24.5625 C-19.25773437 23.41716797 -19.26546875 22.27183594 -19.2734375 21.09179688 C-19.27085938 19.99029297 -19.26828125 18.88878906 -19.265625 17.75390625 C-19.26336914 16.74658447 -19.26111328 15.7392627 -19.25878906 14.70141602 C-18.99297397 11.92665748 -18.59305543 10.28036579 -17 8 C-13.875 7.25 -13.875 7.25 -11 7 C-10.896875 6.236875 -10.79375 5.47375 -10.6875 4.6875 C-9.02939335 -1.79418964 -6.02259498 -1.18300973 0 0 Z M-5 4 C-5.33 4.99 -5.66 5.98 -6 7 C-5.01 7 -4.02 7 -3 7 C-3 6.01 -3 5.02 -3 4 C-3.66 4 -4.32 4 -5 4 Z M6 4 C6 4.99 6 5.98 6 7 C6.99 7 7.98 7 9 7 C8.67 6.01 8.34 5.02 8 4 C7.34 4 6.68 4 6 4 Z M1 12 C0.16094435 13.12073862 -0.67107831 14.24674547 -1.5 15.375 C-1.9640625 16.00148438 -2.428125 16.62796875 -2.90625 17.2734375 C-4.17838101 18.94094613 -4.17838101 18.94094613 -4 21 C-5.32 20.01 -6.64 19.02 -8 18 C-7.34 16.35 -6.68 14.7 -6 13 C-8.64 13 -11.28 13 -14 13 C-14 16.96 -14 20.92 -14 25 C-3.77 25 6.46 25 17 25 C17 21.04 17 17.08 17 13 C14.36 13 11.72 13 9 13 C9.66 14.98 10.32 16.96 11 19 C9.02 19.99 9.02 19.99 7 21 C6.7525 20.2575 6.505 19.515 6.25 18.75 C4.90852699 15.79875938 3.39094474 14.15185026 1 12 Z M-14 32 C-14 32.99 -14 33.98 -14 35 C-3.77 35 6.46 35 17 35 C17 34.01 17 33.02 17 32 C6.77 32 -3.46 32 -14 32 Z " fill="#2872F0" transform="translate(22,5)"/>
</svg>
