<?xml version="1.0" encoding="UTF-8"?>
<svg version="1.1" xmlns="http://www.w3.org/2000/svg" width="512" height="512">
<path d="M0 0 C0.68964844 0.350625 1.37929688 0.70125 2.08984375 1.0625 C11.42147788 6.38430322 18.81790752 14.75302851 26.30761719 22.32641602 C29.84413342 25.88975591 33.4612265 29.28237095 37.3125 32.5078125 C39.00894116 34.0079063 40.44267025 35.61456838 41.9375 37.3125 C45.42231356 40.80319093 49.20144618 41.45627276 54 42 C57.31967447 41.90929407 60.52033628 41.42773115 63.79296875 40.8828125 C64.70146072 40.74680634 65.6099527 40.61080017 66.54597473 40.47067261 C69.42908574 40.03748346 72.30825766 39.58314374 75.1875 39.125 C114.9337669 32.88989496 114.9337669 32.88989496 131 44.4375 C131.66 44.953125 132.32 45.46875 133 46 C133.83402344 46.61746094 134.66804688 47.23492187 135.52734375 47.87109375 C138.11265877 50.09699689 139.73850687 52.18897021 141.5625 55.0625 C142.12066406 55.91972656 142.67882812 56.77695312 143.25390625 57.66015625 C149.36923665 69.35726473 150.94438108 81.93364417 153.0625 94.8125 C153.72984502 98.86262675 154.41006692 102.91029847 155.09765625 106.95703125 C155.24461441 107.87587601 155.39157257 108.79472076 155.54298401 109.7414093 C156.92213715 118.10337903 156.92213715 118.10337903 161.99707031 124.64135742 C162.76631836 125.06263916 163.53556641 125.4839209 164.328125 125.91796875 C165.21693359 126.41345215 166.10574219 126.90893555 167.02148438 127.41943359 C168.00439453 127.94102051 168.98730469 128.46260742 170 129 C171.06025391 129.57186035 172.12050781 130.1437207 173.21289062 130.73291016 C176.11030729 132.28366953 179.01491464 133.81973541 181.92352295 135.34936523 C216.91891313 153.80307474 216.91891313 153.80307474 224.8203125 172.9921875 C227.46504475 181.67137926 227.12281092 192.49532347 224 201 C223.71640625 201.78375 223.4328125 202.5675 223.140625 203.375 C220.3719685 210.43708035 216.96763453 217.1660034 213.5625 223.9375 C212.84078613 225.37464355 212.84078613 225.37464355 212.10449219 226.84082031 C208.29989693 234.41110904 208.29989693 234.41110904 206.91210938 237.13623047 C206.03043327 238.87489216 205.17039647 240.62448268 204.3125 242.375 C203.85488281 243.29023438 203.39726562 244.20546875 202.92578125 245.1484375 C200.79812542 251.70197656 201.85267071 256.60912993 204.79425049 262.59603882 C205.19730408 263.37645538 205.60035767 264.15687195 206.015625 264.9609375 C206.42786316 265.79154694 206.84010132 266.62215637 207.26483154 267.47793579 C208.57843425 270.11800021 209.91313395 272.74665086 211.25 275.375 C212.56833613 277.99812605 213.88207652 280.62346449 215.19232178 283.25064087 C216.00591863 284.8786026 216.82475867 286.50395948 217.64996338 288.12606812 C224.38595201 301.49256689 228.91960663 315.02719695 224.9375 330.125 C216.89521042 352.93654101 196.35016316 360.88611784 176.42553711 371.30175781 C174.4673946 372.32671372 172.51281544 373.35821786 170.55859375 374.390625 C168.84627563 375.2882959 168.84627563 375.2882959 167.09936523 376.20410156 C160.72877114 379.81380924 160.72877114 379.81380924 157.40234375 386.00390625 C154.95487096 395.37643891 153.67066408 405.07634039 152.12768555 414.62963867 C149.2679765 432.22995026 145.92040745 448.98654292 130.7578125 460.27734375 C111.84630012 472.09034227 91.79382045 467.55319419 71.06054688 464.3371582 C68.08698116 463.88010837 65.11056383 463.44833385 62.1328125 463.01953125 C61.23370148 462.87280472 60.33459045 462.72607819 59.40823364 462.5749054 C53.31605424 461.71750323 49.5623357 462.30838675 44 465 C41.03895134 467.39842477 41.03895134 467.39842477 38.5 470.25 C35.50087875 473.40948557 32.5320568 476.51223939 29.1875 479.3125 C25.90425209 482.0958295 22.91341581 485.09613902 19.91015625 488.1730957 C9.47544068 498.84358511 -1.62622161 507.91932875 -17.19384766 508.29223633 C-25.53657597 508.36360784 -32.42960057 507.89408025 -40 504 C-40.68964844 503.649375 -41.37929687 503.29875 -42.08984375 502.9375 C-51.42147788 497.61569678 -58.81790752 489.24697149 -66.30761719 481.67358398 C-69.84342074 478.11096218 -73.4615192 474.72083879 -77.30859375 471.4921875 C-79.0138447 469.98778597 -80.48273891 468.37874036 -82 466.6875 C-85.17082017 463.51696266 -88.61740185 462.54295918 -93 462 C-96.35531524 462.0936725 -99.60341038 462.58292691 -102.9140625 463.1171875 C-104.31221695 463.32119675 -104.31221695 463.32119675 -105.73861694 463.52932739 C-108.70313141 463.96332267 -111.66405228 464.41735066 -114.625 464.875 C-155.56880789 471.12364252 -155.56880789 471.12364252 -174 458 C-189.5509267 444.32790274 -190.72936842 422.53068696 -193.94775391 403.40112305 C-194.38382096 400.81927249 -194.83168748 398.23968624 -195.28125 395.66015625 C-195.40947144 394.87882828 -195.53769287 394.09750031 -195.6697998 393.29249573 C-196.6080546 387.97287689 -197.63127188 382.94681652 -201.99707031 379.35864258 C-202.76631836 378.93736084 -203.53556641 378.5160791 -204.328125 378.08203125 C-205.66133789 377.33880615 -205.66133789 377.33880615 -207.02148438 376.58056641 C-208.00439453 376.05897949 -208.98730469 375.53739258 -210 375 C-211.06025391 374.42813965 -212.12050781 373.8562793 -213.21289062 373.26708984 C-216.11030729 371.71633047 -219.01491464 370.18026459 -221.92352295 368.65063477 C-256.91891313 350.19692526 -256.91891313 350.19692526 -264.8203125 331.0078125 C-267.46504475 322.32862074 -267.12281092 311.50467653 -264 303 C-263.57460938 301.824375 -263.57460938 301.824375 -263.140625 300.625 C-260.3719685 293.56291965 -256.96763453 286.8339966 -253.5625 280.0625 C-253.08135742 279.1044043 -252.60021484 278.14630859 -252.10449219 277.15917969 C-248.29989693 269.58889096 -248.29989693 269.58889096 -246.91210938 266.86376953 C-246.03043327 265.12510784 -245.17039647 263.37551732 -244.3125 261.625 C-243.85488281 260.70976562 -243.39726562 259.79453125 -242.92578125 258.8515625 C-240.79812542 252.29802344 -241.85267071 247.39087007 -244.79425049 241.40396118 C-245.19730408 240.62354462 -245.60035767 239.84312805 -246.015625 239.0390625 C-246.63398224 237.79314835 -246.63398224 237.79314835 -247.26483154 236.52206421 C-248.57843425 233.88199979 -249.91313395 231.25334914 -251.25 228.625 C-252.56833613 226.00187395 -253.88207652 223.37653551 -255.19232178 220.74935913 C-256.00591863 219.1213974 -256.82475867 217.49604052 -257.64996338 215.87393188 C-264.38595201 202.50743311 -268.91960663 188.97280305 -264.9375 173.875 C-256.89521042 151.06345899 -236.35016316 143.11388216 -216.42553711 132.69824219 C-214.4673946 131.67328628 -212.51281544 130.64178214 -210.55859375 129.609375 C-208.84627563 128.7117041 -208.84627563 128.7117041 -207.09936523 127.79589844 C-200.72877114 124.18619076 -200.72877114 124.18619076 -197.40234375 117.99609375 C-194.95487096 108.62356109 -193.67066408 98.92365961 -192.12768555 89.37036133 C-189.2679765 71.77004974 -185.92040745 55.01345708 -170.7578125 43.72265625 C-152.14479962 32.09611421 -132.6764683 36.34216324 -112.28149414 39.58740234 C-109.45394976 40.03329077 -106.62389481 40.45900755 -103.79296875 40.8828125 C-102.51766548 41.09516037 -102.51766548 41.09516037 -101.21659851 41.3117981 C-95.11257785 42.21258605 -88.46938835 42.47771337 -83.22229004 38.73042297 C-81.67996732 37.33786009 -80.31159899 35.8708888 -78.9375 34.3125 C-77.90428039 33.21042074 -76.86912941 32.11014892 -75.83203125 31.01171875 C-75.34299316 30.48497559 -74.85395508 29.95823242 -74.35009766 29.41552734 C-72.705572 27.69130316 -70.95509942 26.14942971 -69.125 24.625 C-65.86121259 21.86543027 -62.89454142 18.88440013 -59.91235352 15.82910156 C-43.96453565 -0.47863143 -22.3983399 -11.52131189 0 0 Z M-120.6171875 138.765625 C-130.49390887 150.94520887 -134.02147142 165.15747137 -132.53125 180.55078125 C-130.24394669 195.40143434 -122.46891834 207.96676994 -110.43359375 216.90625 C-98.06550234 225.21028861 -84.81400295 228.80110122 -69.9765625 226.5390625 C-54.47389572 223.0804623 -41.91438439 214.71549359 -33 201.5625 C-25.20818515 188.18338377 -23.34429903 174.00285202 -27 159 C-29.4716101 151.37145906 -32.85538544 145.11827563 -38 139 C-38.61746094 138.18402344 -39.23492187 137.36804688 -39.87109375 136.52734375 C-47.16693128 127.86604672 -58.79697946 121.63309337 -70 120 C-90.08963261 118.79383111 -106.67611663 123.54493893 -120.6171875 138.765625 Z M63.0263865 148.57238328 C62.27092908 149.33453287 61.51547165 150.09668246 60.73712158 150.88192749 C59.92077924 151.69358986 59.10443691 152.50525222 58.26335692 153.34151042 C56.00638665 155.58860125 53.75624479 157.84227702 51.50886941 160.09895658 C49.08075713 162.53386417 46.64401931 164.96011362 44.20838928 167.38749695 C39.44159992 172.14095255 34.68294913 176.90247575 29.9271749 181.66694926 C26.06222865 185.53867223 22.19436227 189.40745519 18.32439423 193.27415848 C17.77348772 193.82460528 17.22258122 194.37505208 16.65498058 194.94217909 C15.53580496 196.06039554 14.4166226 197.17860526 13.29743358 198.29680832 C2.80566965 208.78001961 -7.67688263 219.27240323 -18.15630582 229.76794882 C-27.14929704 238.77434684 -36.15013011 247.77284497 -45.15673828 256.765625 C-55.61642462 267.20925975 -66.07123086 277.65774015 -76.51828694 288.11401045 C-77.63207076 289.22874992 -78.74586085 290.34348313 -79.85965729 291.45820999 C-80.40766388 292.00667941 -80.95567047 292.55514883 -81.52028333 293.12023854 C-85.38340506 296.98595114 -89.24999831 300.84817039 -93.11794281 304.70905685 C-97.83044298 309.41314669 -102.53756754 314.1225371 -107.23786488 318.83882116 C-109.63637269 321.24521735 -112.03722403 323.64914485 -114.44463158 326.0466404 C-117.05175844 328.64560258 -119.64952024 331.25357487 -122.24505615 333.86410522 C-123.00943646 334.62179337 -123.77381677 335.37948151 -124.56136012 336.1601299 C-125.60157656 337.2120812 -125.60157656 337.2120812 -126.66280746 338.28528404 C-127.26331035 338.88627399 -127.86381324 339.48726393 -128.48251319 340.1064657 C-131.29647912 343.61775882 -132 346.39611915 -132 350.875 C-131.21791656 355.73311828 -128.70117893 358.86956361 -125 362 C-120.42109272 364.33816542 -116.91927239 364.4418557 -112 363 C-106.06944102 358.58849505 -100.89900697 353.0456345 -95.68643188 347.82687378 C-94.48998175 346.63488033 -94.48998175 346.63488033 -93.2693609 345.4188062 C-90.61552067 342.7735905 -87.96522141 340.12485658 -85.31494141 337.47607422 C-83.40589156 335.57165662 -81.49665627 333.66742645 -79.58721924 331.76339722 C-74.41554554 326.60524126 -69.24759349 321.44336757 -64.0804677 316.28065634 C-60.85269353 313.05565245 -57.62418602 309.83138339 -54.39554977 306.60724258 C-45.44965597 297.67352665 -36.50469856 288.7388755 -27.56319618 279.80076408 C-26.99226369 279.23005116 -26.4213312 278.65933823 -25.83309772 278.07133097 C-25.26085353 277.49930506 -24.68860934 276.92727915 -24.09902442 276.33791912 C-22.93955298 275.17889114 -21.78008 274.01986472 -20.62060547 272.86083984 C-20.04547484 272.28593064 -19.4703442 271.71102144 -18.87778537 271.11869074 C-9.54097585 261.78583647 -0.19742202 252.45976537 9.14902763 243.13656627 C18.75324248 233.55605036 28.3518361 223.96993277 37.94479239 214.37814343 C43.32787857 208.99597417 48.71335968 203.61625066 54.10505295 198.24270248 C58.69103864 193.67209718 63.27187723 189.09641137 67.84604232 184.51397501 C70.1797332 182.17637201 72.51659312 179.84210061 74.85842514 177.51264954 C77.39536564 174.98834023 79.92294645 172.45501859 82.44833374 169.91915894 C83.19189507 169.18365401 83.9354564 168.44814909 84.70154989 167.69035614 C85.37637714 167.00893904 86.05120438 166.32752195 86.74648094 165.62545586 C87.33071087 165.04182301 87.9149408 164.45819017 88.51687467 163.85687149 C91.30754822 160.36295089 92 157.57414394 92 153.125 C91.22002244 148.2799629 88.71034974 145.10774074 85 142 C75.52793322 137.64284928 69.7314026 141.94188674 63.0263865 148.57238328 Z M-2 296 C-11.53779535 306.9621542 -15.77519992 320.80720122 -14.77734375 335.21484375 C-13.3801909 346.62266457 -9.38229611 356.22054299 -2 365 C-1.38253906 365.81597656 -0.76507813 366.63195312 -0.12890625 367.47265625 C7.16693128 376.13395328 18.79697946 382.36690663 30 384 C47.44892566 385.04762251 61.50628979 382.03046084 75.25 370.625 C85.59284818 361.07136514 92.16218567 348.13588866 93 334 C93.12686104 318.03363216 88.23659441 304.45702683 77.25 292.75 C65.69367364 281.88393591 51.95946244 276.59463627 36.2109375 276.7890625 C20.90356391 277.79465639 8.37249957 284.98843648 -2 296 Z " fill="#000000" transform="translate(276,4)"/>
<path d="M0 0 C6.11504801 4.15596782 8.567528 8.87055276 10.859375 15.74609375 C11.80082136 23.82908324 10.57700312 30.06183994 5.859375 36.74609375 C0.90015791 42.24502029 -3.79167763 45.28206214 -11.2890625 46.08203125 C-19.70960763 46.1839749 -25.11583958 45.52695278 -31.33203125 39.6875 C-37.84270721 32.78082586 -39.70344842 27.30926116 -39.515625 17.84765625 C-38.71755926 11.24698751 -35.69190228 5.86365168 -30.890625 1.30859375 C-21.32679544 -6.01468572 -10.15336635 -5.94750109 0 0 Z " fill="#000000" transform="translate(211.140625,156.25390625)"/>
<path d="M0 0 C6.42096298 4.86516497 10.2685947 10.89396299 11.4140625 18.890625 C11.8164028 27.14918905 9.80881793 33.52960079 4.42578125 39.84765625 C-0.71784406 44.7275059 -7.01488973 47.04334775 -14.0625 47.375 C-21.88522621 46.62997846 -28.38646988 43.57618956 -34 38 C-38.54019354 31.0915787 -39.92268097 24.18611142 -39 16 C-36.69974934 8.57255513 -32.36622293 3.35851191 -26 -1 C-18.53490859 -4.90220687 -7.22351123 -4.38403166 0 0 Z " fill="#000000" transform="translate(329,313)"/>
</svg>
