<svg xmlns="http://www.w3.org/2000/svg" viewBox="-0.5 -0.5 16 16" fill="none" stroke="#2772f0" stroke-linecap="round" stroke-linejoin="round" id="Headset--Streamline-Tabler.svg" height="16" width="16"><desc>Headset Streamline Icon: https://streamlinehq.com</desc><path d="M2.5 8.75v-1.875a5 5 0 1 1 10 0v1.875" stroke-width="1"></path><path d="M11.25 11.875c0 1.035625 -1.67875 1.875 -3.75 1.875" stroke-width="1"></path><path d="M2.5 8.75a1.25 1.25 0 0 1 1.25 -1.25h0.625a1.25 1.25 0 0 1 1.25 1.25v1.875a1.25 1.25 0 0 1 -1.25 1.25H3.75a1.25 1.25 0 0 1 -1.25 -1.25v-1.875z" stroke-width="1"></path><path d="M9.375 8.75a1.25 1.25 0 0 1 1.25 -1.25h0.625a1.25 1.25 0 0 1 1.25 1.25v1.875a1.25 1.25 0 0 1 -1.25 1.25h-0.625a1.25 1.25 0 0 1 -1.25 -1.25v-1.875z" stroke-width="1"></path></svg>